<?xml version="1.0" encoding="iso-8859-1"?>
<!-- Generator: Adobe Illustrator 19.0.0, SVG Export Plug-In . SVG Version: 6.00 Build 0)  -->
<svg version="1.1" id="Capa_1" xmlns="http://www.w3.org/2000/svg" xmlns:xlink="http://www.w3.org/1999/xlink" x="0px" y="0px"
	 viewBox="0 0 512 512" style="enable-background:new 0 0 512 512;" xml:space="preserve">
<path style="fill:#303C42;" d="M440.979,36.771C429.646,14.094,406.844,0,381.479,0H130.521c-25.365,0-48.167,14.094-59.5,36.771
	C66.427,45.958,64,56.25,64,66.521v25.51c0,3.156,0.219,6.292,0.667,9.406L81.51,219.365C84.49,240.25,102.656,256,123.75,256
	h25.031c4.089,7.48,8.839,14.559,13.928,21.333h-24.043c-17.646,0-32,14.354-32,32c0,14.109,9.238,25.978,21.936,30.223
	c3.023,43.13,27.465,82.16,65.449,103.194c-15.083,15.906-23.385,36.708-23.385,58.583c0,5.896,4.771,10.667,10.667,10.667h149.333
	c5.896,0,10.667-4.771,10.667-10.667c0-21.875-8.302-42.677-23.771-58.552c38.345-21.064,62.81-60.094,65.833-103.225
	c12.699-4.245,21.938-16.113,21.938-30.223c0-17.646-14.354-32-32-32H349.29c5.09-6.775,9.84-13.853,13.928-21.333h25.031
	c21.094,0,39.26-15.75,42.24-36.635l16.844-117.927c0.448-3.115,0.667-6.25,0.667-9.406v-25.51
	C448,56.25,445.573,45.958,440.979,36.771z"/>
<path style="fill:#F3F3F3;" d="M307.302,424.083c-5.74,3.146-9.604,8.635-10.615,15.063c-1.031,6.656,1.073,13.313,5.781,18.271
	c8.823,9.313,14.542,20.844,16.635,33.25H192.896c2.083-12.406,7.813-23.938,16.635-33.24c4.708-4.969,6.813-11.625,5.781-18.281
	c-1.01-6.427-4.875-11.917-10.604-15.052c-30.993-17.033-51.15-48.125-54.651-82.76h211.885
	C358.441,375.969,338.286,407.06,307.302,424.083z"/>
<path style="opacity:0.2;fill:#FFFFFF;enable-background:new    ;" d="M227.324,439.146c-0.712-6.427-3.436-11.917-7.474-15.052
	c-21.844-17.033-36.049-48.125-38.517-82.76h-31.276c3.501,34.635,23.658,65.728,54.651,82.76
	c5.729,3.135,9.594,8.625,10.604,15.052c1.031,6.656-1.073,13.313-5.781,18.281c-8.823,9.302-14.552,20.833-16.635,33.24h18.629
	c1.469-12.406,5.507-23.938,11.725-33.24C226.568,452.458,228.051,445.802,227.324,439.146z"/>
<path style="opacity:0.1;fill:#010101;enable-background:new    ;" d="M307.302,424.083c30.984-17.023,51.139-48.115,54.641-82.75
	h-31.276c-2.467,34.635-16.673,65.727-38.51,82.75c-4.044,3.146-6.768,8.635-7.48,15.063c-0.727,6.656,0.757,13.313,4.074,18.271
	c6.219,9.313,10.249,20.844,11.725,33.25h18.629c-2.094-12.406-7.813-23.938-16.635-33.25c-4.708-4.958-6.813-11.615-5.781-18.271
	C297.698,432.719,301.563,427.229,307.302,424.083z"/>
<path style="fill:#F3F3F3;" d="M384,309.333c0,5.885-4.781,10.667-10.667,10.667H138.667c-5.885,0-10.667-4.781-10.667-10.667
	s4.781-10.667,10.667-10.667h234.667C379.219,298.667,384,303.448,384,309.333z"/>
<path style="opacity:0.1;fill:#010101;enable-background:new    ;" d="M373.333,298.667c0,5.885-4.781,10.667-10.667,10.667H128
	c0,5.885,4.781,10.667,10.667,10.667h234.667c5.885,0,10.667-4.781,10.667-10.667S379.219,298.667,373.333,298.667z"/>
<path style="fill:#F3F3F3;" d="M190.544,277.333c-25.078-26.214-41.211-63.777-41.211-97.021C149.333,125.406,194.948,64,256,64
	s106.667,61.406,106.667,116.313c0,33.243-16.133,70.807-41.211,97.021H190.544z"/>
<path style="opacity:0.1;fill:#010101;enable-background:new    ;" d="M314.461,84.779c16.829,21.563,26.872,48.553,26.872,74.201
	c0,27.31-10.888,57.536-28.68,81.99C305.697,250.533,294.396,256,282.569,256H173.676c5.004,7.646,10.658,14.841,16.868,21.333
	h130.911c25.078-26.214,41.211-63.777,41.211-97.021C362.667,145.168,343.924,107.441,314.461,84.779z"/>
<path style="fill:#FFFFFF;" d="M201.677,109.646c-19.125,19.01-31.01,46.083-31.01,70.667c0,5.896,4.771,10.667,10.667,10.667
	c5.896,0,10.667-4.771,10.667-10.667c0-18.813,9.698-40.615,24.719-55.542c4.177-4.146,4.198-10.906,0.042-15.083
	C212.604,105.51,205.854,105.469,201.677,109.646z"/>
<path style="fill:#F3F3F3;" d="M426.667,92.031c0,2.135-0.156,4.271-0.458,6.385l-16.844,117.927
	c-1.49,10.448-10.563,18.323-21.115,18.323h-15.288C379.939,216.678,384,197.996,384,180.313c0-64.979-54.74-137.646-128-137.646
	s-128,72.667-128,137.646c0,17.684,4.061,36.366,11.038,54.354H123.75c-10.552,0-19.625-7.875-21.115-18.323L85.792,98.417
	c-0.302-2.115-0.458-4.25-0.458-6.385v-25.51c0-6.979,1.646-13.969,4.771-20.208c7.698-15.406,23.188-24.979,40.417-24.979h250.958
	c17.229,0,32.719,9.573,40.417,24.979c3.125,6.24,4.771,13.229,4.771,20.208V92.031z"/>
<path style="opacity:0.2;fill:#FFFFFF;enable-background:new    ;" d="M107.125,119.75c-0.302-2.115,1.188-45.865,4.313-52.104
	c7.698-15.406,23.188-24.979,40.417-24.979h250.958c6.984,0,13.503,1.931,19.512,4.828c-0.177-0.38-0.241-0.807-0.428-1.182
	c-7.698-15.406-23.188-24.979-40.417-24.979H130.521c-17.229,0-32.719,9.573-40.417,24.979c-3.125,6.24-4.771,13.229-4.771,20.208
	v25.51c0,2.135,0.156,4.271,0.458,6.385l16.844,117.927c1.479,10.372,10.441,18.171,20.897,18.283L107.125,119.75z"/>
<path style="fill:#303C42;" d="M394.667,42.667H380.72C376.996,36.409,370.458,32,362.667,32c-11.76,0-21.333,9.573-21.333,21.333
	s9.573,21.333,21.333,21.333c7.792,0,14.329-4.409,18.053-10.667h13.947c5.896,0,10.667-4.771,10.667-10.667
	S400.563,42.667,394.667,42.667z"/>
<linearGradient id="SVGID_1_" gradientUnits="userSpaceOnUse" x1="-32.1389" y1="641.2742" x2="-27.2205" y2="636.3558" gradientTransform="matrix(21.3333 0 0 -21.3333 996.3334 13791.667)">
	<stop  offset="0" style="stop-color:#010101;stop-opacity:0.1"/>
	<stop  offset="1" style="stop-color:#010101;stop-opacity:0"/>
</linearGradient>
<path style="fill:url(#SVGID_1_);" d="M388.25,234.667c10.552,0,19.625-7.875,21.115-18.323l8.473-59.318l-76.504-76.504
	l-0.026,0.112C367.777,107.585,384,145.036,384,180.313c0,17.684-4.061,36.366-11.038,54.354H388.25z"/>
<linearGradient id="SVGID_2_" gradientUnits="userSpaceOnUse" x1="-29.4089" y1="644.094" x2="-26.1062" y2="640.7912" gradientTransform="matrix(21.3333 0 0 -21.3333 996.3334 13791.667)">
	<stop  offset="0" style="stop-color:#010101;stop-opacity:0.1"/>
	<stop  offset="1" style="stop-color:#010101;stop-opacity:0"/>
</linearGradient>
<path style="fill:url(#SVGID_2_);" d="M402.327,45.917l-0.023,0.01c1.861,1.919,3.03,4.518,3.03,7.406
	c0,5.896-4.771,10.667-10.667,10.667H380.72c-3.724,6.258-10.262,10.667-18.053,10.667c-4.814,0-9.042-1.896-12.616-4.596
	l-0.339,0.156l70.458,70.458l6.038-42.268c0.302-2.115,0.458-4.25,0.458-6.385V70.257L402.327,45.917z"/>
<linearGradient id="SVGID_3_" gradientUnits="userSpaceOnUse" x1="-45.4972" y1="640.2119" x2="-26.7043" y2="631.4455" gradientTransform="matrix(21.3333 0 0 -21.3333 996.3334 13791.667)">
	<stop  offset="0" style="stop-color:#FFFFFF;stop-opacity:0.2"/>
	<stop  offset="1" style="stop-color:#FFFFFF;stop-opacity:0"/>
</linearGradient>
<path style="fill:url(#SVGID_3_);" d="M440.979,36.771C429.646,14.094,406.844,0,381.479,0H130.521
	c-25.365,0-48.167,14.094-59.5,36.771C66.427,45.958,64,56.25,64,66.521v25.51c0,3.156,0.219,6.292,0.667,9.406L81.51,219.365
	C84.49,240.25,102.656,256,123.75,256h25.031c4.089,7.48,8.839,14.559,13.928,21.333h-24.043c-17.646,0-32,14.354-32,32
	c0,14.109,9.238,25.978,21.936,30.223c3.023,43.13,27.465,82.16,65.449,103.194c-15.083,15.906-23.385,36.708-23.385,58.583
	c0,5.896,4.771,10.667,10.667,10.667h149.333c5.896,0,10.667-4.771,10.667-10.667c0-21.875-8.302-42.677-23.771-58.552
	c38.345-21.064,62.81-60.094,65.833-103.225c12.699-4.245,21.938-16.113,21.938-30.223c0-17.646-14.354-32-32-32H349.29
	c5.09-6.775,9.84-13.853,13.928-21.333h25.031c21.094,0,39.26-15.75,42.24-36.635l16.844-117.927
	c0.448-3.115,0.667-6.25,0.667-9.406v-25.51C448,56.25,445.573,45.958,440.979,36.771z"/>
<g>
</g>
<g>
</g>
<g>
</g>
<g>
</g>
<g>
</g>
<g>
</g>
<g>
</g>
<g>
</g>
<g>
</g>
<g>
</g>
<g>
</g>
<g>
</g>
<g>
</g>
<g>
</g>
<g>
</g>
</svg>
